<?xml version="1.0" standalone="no"?>
<!DOCTYPE svg PUBLIC "-//W3C//DTD SVG 20010904//EN"
 "http://www.w3.org/TR/2001/REC-SVG-20010904/DTD/svg10.dtd">
<svg version="1.0" xmlns="http://www.w3.org/2000/svg"
 width="590.000000pt" height="230.000000pt" viewBox="0 0 590.000000 230.000000"
 preserveAspectRatio="xMidYMid meet">
<metadata>
Created by potrace 1.15, written by Peter Selinger 2001-2017
</metadata>
<g transform="translate(0.000000,230.000000) scale(0.100000,-0.100000)"
fill="#000000" stroke="none">
<path d="M2720 2271 c-226 -50 -410 -150 -565 -306 -238 -239 -348 -542 -324
-890 39 -552 499 -996 1060 -1022 370 -17 704 133 932 418 301 375 327 909 65
1311 -150 230 -391 405 -653 474 -137 36 -386 43 -515 15z m440 -28 c417 -83
749 -401 851 -818 11 -44 22 -134 26 -201 26 -516 -314 -979 -815 -1111 -130
-34 -338 -43 -463 -19 -223 42 -402 133 -562 285 -104 99 -167 184 -227 306
-210 423 -130 921 200 1253 262 264 629 377 990 305z"/>
<path d="M2842 2219 c-167 -16 -348 -82 -493 -179 -139 -94 -295 -280 -364
-435 -173 -389 -97 -839 195 -1158 140 -154 365 -275 577 -312 546 -95 1067
236 1210 771 24 88 27 117 27 264 0 146 -3 176 -27 262 -53 199 -150 362 -302
506 -222 211 -513 310 -823 281z m200 -81 c24 -12 33 -54 19 -85 -10 -21 -9
-29 4 -43 24 -27 19 -75 -11 -99 -23 -18 -41 -21 -120 -21 l-94 0 0 48 c0 26
-3 84 -7 129 l-6 82 59 3 c72 4 133 -2 156 -14z m185 -29 l22 -8 -23 -58 c-33
-85 -39 -113 -25 -129 25 -30 45 -15 76 54 17 37 33 75 36 85 8 21 19 21 58 1
34 -17 34 -20 -13 -124 -40 -89 -52 -100 -107 -100 -55 0 -119 33 -141 72 -13
25 -13 34 2 90 9 35 24 80 33 101 17 40 17 40 82 16z m-494 -13 c26 -20 40
-68 28 -98 -8 -22 -5 -30 30 -64 21 -21 39 -41 39 -45 0 -3 -18 -9 -41 -13
-35 -6 -45 -3 -77 24 -41 34 -63 27 -44 -15 7 -14 12 -28 12 -30 0 -11 -73
-46 -80 -39 -18 20 -99 229 -91 237 4 4 35 19 67 32 65 27 130 32 157 11z
m840 -165 c18 -11 42 -37 53 -57 l19 -36 -24 -19 c-28 -23 -41 -24 -41 -4 0
22 -45 65 -68 65 -28 0 -72 -45 -72 -73 0 -24 31 -59 63 -70 21 -8 21 -16 2
-41 -15 -20 -16 -20 -60 2 -61 30 -87 73 -82 135 9 106 116 156 210 98z
m-1094 -52 c61 -40 111 -75 111 -78 0 -4 -15 -15 -34 -25 -26 -14 -38 -16 -54
-7 -28 15 -33 14 -65 -14 -24 -21 -26 -27 -16 -49 10 -21 7 -29 -16 -60 -15
-20 -30 -36 -34 -36 -3 0 -30 59 -60 131 l-54 131 44 39 c24 21 49 38 56 39 6
0 61 -32 122 -71z m668 -84 c210 -71 371 -242 429 -455 21 -80 24 -234 5 -310
-34 -139 -128 -286 -234 -366 -210 -159 -462 -184 -693 -69 -237 117 -382 369
-360 627 25 296 226 525 521 594 89 21 235 11 332 -21z m580 -32 l23 -30 -34
-24 c-30 -20 -33 -25 -18 -31 9 -4 34 -7 54 -7 34 -1 40 -5 59 -42 l21 -42
-70 5 -70 5 -38 -68 c-22 -38 -42 -69 -45 -69 -3 0 -14 19 -25 41 -18 41 -18
42 4 80 30 52 28 56 -13 24 l-36 -27 -22 28 c-12 16 -22 33 -22 39 0 13 187
156 199 152 5 -2 20 -17 33 -34z m-1488 -9 c2 -2 -7 -17 -19 -34 -12 -17 -21
-32 -19 -33 92 -58 149 -100 149 -110 0 -16 -28 -57 -40 -57 -4 0 -41 20 -81
45 -75 46 -91 47 -104 4 -8 -24 -14 -23 -44 1 l-23 20 28 47 c15 27 43 72 61
101 l34 52 27 -17 c15 -9 29 -18 31 -19z m-169 -271 c-20 -26 -28 -83 -10 -83
5 0 17 12 27 26 55 80 102 96 148 49 40 -39 31 -130 -17 -182 -25 -27 -36 -28
-63 -8 -19 15 -19 15 2 30 30 21 50 73 34 88 -10 9 -16 7 -29 -11 -47 -65 -59
-75 -90 -75 -79 0 -111 105 -57 186 25 36 26 37 50 21 l25 -16 -20 -25z m1776
18 c36 -22 68 -91 62 -137 -2 -23 -9 -30 -30 -32 -27 -3 -28 -1 -28 41 0 50
-24 83 -41 56 -5 -8 -7 -30 -4 -49 4 -25 0 -45 -15 -67 -17 -28 -25 -33 -59
-33 -33 0 -44 6 -70 37 -52 63 -51 163 3 163 22 0 24 -3 23 -49 -2 -50 12 -79
32 -67 6 4 11 27 11 52 0 53 13 82 43 94 32 13 39 12 73 -9z m-1662 -501 l41
-1 -32 -28 c-30 -25 -32 -30 -23 -61 12 -43 8 -47 -28 -22 -28 21 -29 21 -58
1 -40 -26 -44 -24 -31 17 10 34 9 38 -16 58 -36 29 -34 36 13 36 35 0 40 3 46
28 11 46 18 48 32 9 14 -34 18 -37 56 -37z m1659 0 l41 0 -31 -32 c-26 -28
-29 -37 -22 -62 11 -39 6 -42 -29 -18 -28 21 -29 21 -58 1 -40 -26 -44 -24
-31 17 10 34 9 38 -16 58 -36 29 -34 36 12 36 37 0 40 3 52 38 l13 37 14 -37
c14 -35 18 -38 55 -38z m-1401 -338 c43 -47 47 -66 17 -83 -19 -10 -25 -7 -46
20 -46 58 -123 33 -123 -40 0 -28 39 -69 66 -69 15 0 17 -10 8 -34 -8 -20 -46
-21 -82 -2 -87 45 -101 157 -27 224 35 32 41 34 93 30 49 -4 59 -9 94 -46z
m1056 -36 c-21 -18 -38 -38 -38 -44 0 -24 23 -22 56 3 34 26 36 26 55 9 20
-18 20 -18 -18 -50 -35 -30 -37 -34 -22 -49 16 -16 20 -14 58 21 l42 37 22
-22 22 -22 -45 -41 c-25 -22 -61 -53 -81 -69 l-35 -28 -78 101 -79 102 69 62
69 63 20 -20 20 -20 -37 -33z m-884 -85 c44 -29 66 -70 66 -123 0 -110 -127
-170 -221 -104 -80 55 -78 177 4 226 42 26 113 26 151 1z m732 2 c20 -27 18
-30 -30 -51 -49 -22 -58 -32 -47 -51 6 -9 17 -8 50 5 36 14 44 15 52 3 17 -26
9 -41 -30 -56 -30 -12 -37 -19 -34 -34 7 -24 11 -24 69 1 26 11 48 19 49 18 9
-12 26 -50 23 -53 -13 -14 -184 -83 -190 -77 -9 9 -88 214 -88 227 1 8 137 80
159 84 2 1 10 -7 17 -16z m-453 -93 c24 0 27 -3 27 -36 l0 -37 -60 7 c-55 6
-60 5 -60 -13 0 -16 9 -21 45 -27 46 -6 49 -11 39 -51 -5 -18 -12 -22 -30 -18
-13 3 -35 7 -48 10 -21 4 -25 0 -33 -33 -7 -30 -14 -38 -35 -40 -15 -2 -36 1
-46 7 -19 10 -19 13 10 128 16 64 31 120 34 124 2 4 32 1 66 -7 35 -7 75 -13
91 -14z m247 -5 c0 -14 1 -28 3 -32 1 -4 -22 -12 -50 -16 -44 -7 -53 -12 -53
-29 0 -19 4 -20 49 -14 49 6 49 6 53 -25 5 -33 4 -34 -54 -44 -37 -6 -38 -7
-38 -50 l0 -45 -45 0 c-44 0 -45 1 -45 33 0 17 -3 75 -6 128 l-7 97 74 10
c119 15 119 15 119 -13z"/>
<path d="M2825 1770 c-177 -36 -331 -155 -414 -320 -40 -80 -78 -218 -67 -245
8 -21 59 -19 106 5 43 22 94 27 88 8 -2 -6 -11 -15 -19 -18 -73 -36 -115 -50
-145 -50 -31 0 -35 -3 -32 -22 4 -32 38 -34 103 -7 30 12 58 20 61 16 15 -15
-8 -34 -75 -62 -48 -20 -71 -36 -71 -47 0 -28 14 -28 69 -2 50 23 71 24 71 4
0 -5 -27 -22 -60 -37 -60 -28 -71 -42 -47 -61 9 -8 21 -6 42 8 17 11 38 20 48
20 30 0 18 -24 -23 -48 -38 -21 -51 -44 -32 -56 16 -10 91 35 85 50 -3 9 2 14
15 14 24 0 82 46 82 66 0 7 16 43 36 79 34 62 35 67 25 115 -16 76 -13 131 9
168 26 42 31 41 14 -5 -18 -50 -17 -75 3 -147 l17 -59 -45 -83 -44 -83 17 -48
18 -48 -30 -27 c-51 -46 -88 -48 -103 -4 -4 10 -67 -12 -67 -23 0 -3 4 -12 9
-20 8 -12 15 -13 34 -4 26 12 54 2 43 -16 -4 -6 -14 -11 -22 -11 -8 0 -14 -4
-14 -9 0 -16 26 -30 47 -25 25 7 39 -12 24 -30 -9 -10 -5 -17 15 -31 31 -20
33 -19 78 68 30 57 36 64 36 40 0 -15 -14 -48 -30 -73 -34 -51 -36 -62 -15
-80 12 -10 16 -9 21 6 3 11 15 35 25 54 57 101 57 115 -6 197 -45 60 -46 95
-1 160 47 68 49 81 25 158 -23 76 -20 119 13 173 24 39 36 36 15 -5 -28 -54
-28 -94 -2 -158 14 -33 25 -69 25 -80 0 -11 -17 -45 -37 -75 -51 -75 -51 -118
0 -184 47 -62 48 -101 7 -171 -35 -59 -38 -90 -10 -105 17 -9 20 -8 20 14 0
13 16 58 36 100 42 87 41 102 -11 167 -19 24 -37 56 -40 71 -6 27 11 72 46
117 25 31 24 87 -1 142 -11 24 -20 64 -20 87 0 48 23 107 45 116 10 3 8 -5 -5
-27 -27 -43 -25 -95 5 -169 33 -80 32 -113 -5 -168 -42 -63 -40 -104 7 -165
46 -59 49 -99 10 -172 -31 -60 -37 -127 -11 -137 23 -9 23 -9 23 36 -1 28 10
65 30 108 17 36 31 75 31 86 0 12 -16 44 -35 70 -63 88 -63 94 -5 193 19 34
22 35 82 36 l63 1 34 -50 c45 -67 45 -99 -1 -162 -53 -73 -55 -90 -17 -165 22
-44 32 -78 33 -110 0 -39 3 -45 17 -42 20 6 32 43 23 70 -4 10 -20 46 -36 81
-35 72 -32 87 27 173 43 62 42 86 -5 154 -37 53 -38 85 -5 159 28 64 32 127
10 170 -22 41 -10 45 14 5 27 -44 27 -113 1 -181 -28 -73 -25 -95 15 -158 49
-76 46 -103 -17 -180 -37 -46 -37 -91 2 -161 16 -30 30 -67 30 -82 0 -22 4
-28 18 -25 30 6 27 54 -7 107 -41 64 -40 96 9 169 23 35 40 71 40 88 0 16 -17
56 -37 88 -41 67 -45 104 -18 156 22 42 22 118 1 161 -21 43 -14 48 14 9 30
-42 35 -96 16 -163 -24 -81 -21 -107 19 -163 48 -67 47 -104 -5 -177 -22 -30
-40 -66 -40 -79 0 -25 70 -168 83 -168 21 0 16 35 -12 83 -17 30 -31 67 -30
83 0 28 1 27 17 -11 20 -47 65 -125 72 -125 3 0 16 9 30 20 20 16 22 22 11 29
-20 13 -3 32 23 25 14 -3 27 1 36 11 14 17 8 26 -25 39 -6 2 -6 8 1 16 9 9 17
9 34 0 12 -6 28 -9 36 -6 24 9 15 33 -17 46 -29 12 -33 12 -49 -10 l-18 -23
-45 26 c-59 35 -61 40 -41 78 22 43 13 86 -32 159 l-37 61 18 74 c18 70 18 78
3 125 -19 58 -8 67 17 14 14 -29 16 -51 10 -103 -11 -115 -10 -126 22 -177 16
-27 34 -62 39 -79 7 -21 23 -36 51 -50 23 -11 41 -26 40 -33 -2 -14 77 -54 87
-44 15 14 3 33 -34 54 -22 13 -40 29 -40 36 0 17 15 15 59 -7 29 -15 41 -17
50 -8 20 20 11 32 -49 59 -36 16 -60 33 -60 42 0 22 13 20 71 -9 52 -27 69
-26 69 3 0 11 -23 27 -71 47 -67 28 -90 47 -75 62 3 4 35 -5 71 -20 71 -29 95
-27 95 9 0 21 -5 24 -35 24 -29 0 -72 15 -144 50 -8 3 -17 12 -19 18 -7 21 44
13 97 -15 44 -22 55 -24 77 -14 23 10 25 15 19 59 -20 145 -71 248 -175 352
-88 89 -183 142 -289 165 -77 16 -190 18 -256 5z m192 -100 l37 0 -28 -29
c-26 -27 -27 -32 -16 -66 l12 -36 36 22 c54 32 92 41 92 23 0 -9 -5 -24 -11
-36 -15 -28 -6 -32 35 -17 46 17 53 8 27 -34 -11 -19 -21 -44 -21 -56 0 -26
-3 -26 -76 1 -84 30 -224 30 -314 -1 -43 -15 -66 -19 -68 -12 -2 6 -15 32 -28
57 -14 26 -23 49 -20 51 3 3 21 0 41 -7 45 -15 51 -9 32 29 -9 17 -12 33 -7
36 4 3 34 -9 66 -25 61 -33 67 -31 81 19 5 19 0 29 -20 46 -36 28 -34 35 8 35
31 0 38 5 52 35 l17 36 18 -36 c16 -30 23 -35 55 -35z m-513 -211 c14 -17 26
-40 26 -51 0 -17 4 -19 28 -14 61 15 110 18 116 8 11 -17 -105 -122 -136 -122
-14 0 -47 -9 -73 -20 -44 -19 -95 -27 -95 -14 0 3 19 37 42 75 28 49 43 86 46
120 2 27 8 49 12 49 5 0 20 -14 34 -31z m930 4 c-7 -35 16 -100 56 -157 16
-25 30 -49 30 -55 0 -17 -51 -12 -99 9 -24 11 -55 20 -69 20 -18 0 -39 14 -67
43 -22 24 -49 48 -59 54 -10 6 -16 15 -12 22 10 16 60 14 103 -4 19 -8 37 -15
38 -15 1 0 5 12 8 28 7 34 43 82 62 82 10 0 13 -8 9 -27z m-400 -44 c38 -30
34 -49 -12 -49 -21 0 -43 -5 -50 -12 -14 -14 -16 -78 -2 -78 6 0 10 5 10 10 0
6 18 10 40 10 36 0 40 -2 40 -25 0 -38 -25 -92 -56 -120 -67 -62 -174 5 -174
110 0 35 0 35 46 35 45 0 45 0 42 33 -3 29 -7 32 -41 37 -39 5 -44 11 -30 34
25 41 142 51 187 15z"/>
<path d="M3633 170 c-56 -23 -68 -111 -20 -145 54 -38 137 0 137 64 0 57 -66
102 -117 81z"/>
</g>
</svg>
